# xmcd
#
# Track frame offsets: 
#        150
#        19440
#        33611
#        50249
#        67460
#        85649
#        105304
#        118299
#        133767
#        157270
#        171125
#        198735
#        215187
#        235590
#
# Disc length: 3363 seconds
#
# Revision: 0
# Processed by: cddbd v1.4PL0 Copyright (c) Steve Scherf et al.
# Submitted via: ExactAudioCopy v0.90a11
#
DISCID=dd0d210e
DTITLE=Roodbont and De Fans - De dichter is een Koe, geen varken
DYEAR=1900
DGENRE=
TTITLE0=Achterblijvers
TTITLE1=Kitty's cavia
TTITLE2=Zoals
TTITLE3=Pinguin in Artis
TTITLE4=Voorjaar
TTITLE5=Hond met bijnaam "Knak"
TTITLE6=Wie red Oma?
TTITLE7=De dichter is een koe
TTITLE8=De dichter is geen varken
TTITLE9=Dierentuin
TTITLE10=Tips voor alleenstaanden
TTITLE11=De zwarte kat
TTITLE12=Sterre der zee help de vissers om zeep
TTITLE13=Er is een duif gevallen van de Dom
EXTD=
EXTT0=
EXTT1=
EXTT2=
EXTT3=
EXTT4=
EXTT5=
EXTT6=
EXTT7=
EXTT8=
EXTT9=
EXTT10=
EXTT11=
EXTT12=
EXTT13=
PLAYORDER=
